<?xml version="1.0" encoding="UTF-8"?>
<!DOCTYPE svg PUBLIC "-//W3C//DTD SVG 1.1//EN" "http://www.w3.org/Graphics/SVG/1.1/DTD/svg11.dtd">
<svg version="1.1" xmlns="http://www.w3.org/2000/svg" xmlns:xlink="http://www.w3.org/1999/xlink" x="0" y="0" width="1024" height="1366" viewBox="0, 0, 1024, 1366">
  <g id="Layer_1">
    <g>
      <path d="M311.989,1366 C311.989,1366 513.351,952.112 391.853,764.114 C270.354,576.117 100.417,535.893 21.905,311.374 C-27.823,169.165 21.082,72.79 32.45,40.287 C43.949,39.33 137.764,-0.266 284.132,207.422 C405.963,386.791 306.549,507.076 284.788,534.672 C263.027,562.268 423.023,704.822 423.023,704.822 C423.023,704.822 743.58,548.47 718.193,412.215 C640.216,50.018 999.271,0 999.271,0 C999.271,0 1134.928,334.862 770.781,429.462 C678.552,638.932 619.533,637.029 478.823,743.366 C574.933,1046.922 578.56,1364.275 578.56,1364.275 C578.56,1364.275 311.989,1366 311.989,1366 z" fill="#558B2E"/>
      <path d="M311.989,1366 C311.989,1366 513.351,952.112 391.853,764.114 C270.354,576.117 100.417,535.893 21.905,311.374 C-27.823,169.165 21.082,72.79 32.45,40.287 C43.949,39.33 137.764,-0.266 284.132,207.422 C405.963,386.791 306.549,507.076 284.788,534.672 C263.027,562.268 423.023,704.822 423.023,704.822 C423.023,704.822 743.58,548.47 718.193,412.215 C640.216,50.018 999.271,0 999.271,0 C999.271,0 1134.928,334.862 770.781,429.462 C678.552,638.932 619.533,637.029 478.823,743.366 C574.933,1046.922 578.56,1364.275 578.56,1364.275 C578.56,1364.275 311.989,1366 311.989,1366 z" fill-opacity="0" stroke="#558B2E" stroke-width="8"/>
    </g>
  </g>
</svg>
