<?xml version="1.0" encoding="UTF-8"?>
<!DOCTYPE svg PUBLIC "-//W3C//DTD SVG 1.1//EN" "http://www.w3.org/Graphics/SVG/1.1/DTD/svg11.dtd">
<svg version="1.1" xmlns="http://www.w3.org/2000/svg" xmlns:xlink="http://www.w3.org/1999/xlink" x="0" y="0" width="1024" height="1366" viewBox="0, 0, 1024, 1366">
  <g id="Layer_1">
    <g>
      <path d="M8.649,1084.16 C8.649,1084.16 387.803,925.172 437.638,791.494 C571.647,432.028 788.682,609.097 788.682,609.097 C788.682,609.097 833.829,797.75 1007.649,735.636 C1041.632,652.433 961.067,549.338 807.336,579.023 C723.072,511.896 625.956,527.7 598.285,537.929 C607.163,517.017 729.069,447.835 619.958,352.676 C691.665,284.435 639.611,164.491 541.075,156.842 C469.763,235.18 488.22,335.547 582.175,363.55 C666.522,414.853 616.725,476.277 554.243,533.414 C491.761,590.552 391.908,747.186 324.278,814.39 C254.709,883.522 29.312,991.716 11.059,1007.873 C14.578,1077.4 8.649,1084.16 8.649,1084.16 z" fill="#558B2E"/>
      <path d="M8.649,1084.16 C8.649,1084.16 387.803,925.172 437.638,791.494 C571.647,432.028 788.682,609.097 788.682,609.097 C788.682,609.097 833.829,797.75 1007.649,735.636 C1041.632,652.433 961.067,549.338 807.336,579.023 C723.072,511.896 625.956,527.7 598.285,537.929 C607.163,517.017 729.069,447.835 619.958,352.676 C691.665,284.435 639.611,164.491 541.075,156.842 C469.763,235.18 488.22,335.547 582.175,363.55 C666.522,414.853 616.725,476.277 554.243,533.414 C491.761,590.552 391.908,747.186 324.278,814.39 C254.709,883.522 29.312,991.716 11.059,1007.873 C14.578,1077.4 8.649,1084.16 8.649,1084.16 z" fill-opacity="0" stroke="#558B2E" stroke-width="8"/>
    </g>
  </g>
</svg>
